<?xml version="1.0" encoding="utf-8"?>
<!-- Generator: Adobe Illustrator 16.0.0, SVG Export Plug-In . SVG Version: 6.00 Build 0)  -->
<!DOCTYPE svg PUBLIC "-//W3C//DTD SVG 1.1//EN" "http://www.w3.org/Graphics/SVG/1.1/DTD/svg11.dtd">
<svg version="1.1" id="Layer_1" xmlns="http://www.w3.org/2000/svg" xmlns:xlink="http://www.w3.org/1999/xlink" x="0px" y="0px"
	 width="35px" height="50px" viewBox="0 0 35 50" enable-background="new 0 0 35 50" xml:space="preserve">
<path fill="#FFFFFF" d="M30.751,11.631l-0.034-0.021l-0.078-0.024C30.67,11.613,30.709,11.629,30.751,11.631z"/>
<path fill="#FFFFFF" d="M31.248,15.203l-0.038,0.011L31.248,15.203z"/>
<path fill="#FFFFFF" d="M30.766,11.625c-0.004-0.001-0.01-0.002-0.014-0.003c0,0.003,0,0.006,0,0.009
	C30.757,11.631,30.762,11.628,30.766,11.625z"/>
<path fill="#FFFFFF" d="M30.752,11.631h0.006v-0.003L30.752,11.631z"/>
<path fill="#FFFFFF" d="M31.218,15.196l0.058-0.033l0.021-0.012l0.02-0.021C31.279,15.146,31.246,15.168,31.218,15.196z"/>
<path fill="#FFFFFF" d="M30.851,11.709l-0.056-0.054l-0.039-0.021C30.777,11.671,30.811,11.697,30.851,11.709z"/>
<path fill="#FFFFFF" d="M16.715,46.371c-0.045,0.02-0.084,0.051-0.114,0.089l0.035-0.022C16.66,46.415,16.694,46.389,16.715,46.371z
	"/>
<path fill="#FFFFFF" d="M24.924,44.747c0-0.051-0.025-0.041-0.02,0.14c0-0.016,0.006-0.029,0.01-0.044
	C24.917,44.811,24.92,44.779,24.924,44.747z"/>
<path fill="#FFFFFF" d="M24.072,46.371c-0.045,0.02-0.084,0.051-0.115,0.089l0.036-0.022C24.018,46.415,24.051,46.389,24.072,46.371
	z"/>
<path fill="#FFFFFF" d="M10.935,46.758c-0.034-0.03-0.076-0.05-0.121-0.057c0.036,0.018,0.072,0.035,0.096,0.049L10.935,46.758z"/>
<path fill="#FFFFFF" d="M9.634,45.504c-0.005-0.053-0.021-0.104-0.047-0.149c0.019,0.048,0.034,0.097,0.046,0.147L9.634,45.504z"/>
<path fill="#FFFFFF" d="M18.371,23.098c-1.785,0.769-3.812,1.641-6.438,1.641c-1.099-0.002-2.192-0.154-3.25-0.451l1.816,18.757
	c0.064,0.783,0.419,1.515,0.995,2.047c0.575,0.533,1.329,0.829,2.111,0.829c0,0,2.576,0.134,3.436,0.134
	c0.925,0,3.698-0.134,3.698-0.134c0.782,0,1.535-0.296,2.111-0.829c0.574-0.533,0.93-1.264,0.994-2.047l1.945-20.728
	c-0.869-0.299-1.746-0.497-2.736-0.497C21.342,21.82,19.964,22.412,18.371,23.098z"/>
<path fill="#FFFFFF" d="M3.059,15.095l0.031,0.029l0.02,0.012C3.094,15.121,3.077,15.107,3.059,15.095z"/>
<path fill="#FFFFFF" d="M34.189,13.364l-0.273-1.388c-0.246-1.245-0.803-2.421-2.073-2.872c-0.407-0.144-0.87-0.206-1.183-0.503
	c-0.312-0.298-0.404-0.761-0.477-1.19c-0.133-0.788-0.26-1.576-0.396-2.362c-0.118-0.676-0.212-1.436-0.52-2.056
	c-0.402-0.833-1.234-1.32-2.063-1.642c-0.424-0.159-0.857-0.294-1.297-0.404c-2.068-0.549-4.244-0.75-6.372-0.866
	c-2.555-0.142-5.116-0.099-7.664,0.128C9.975,0.383,7.978,0.593,6.175,1.253C5.516,1.494,4.837,1.784,4.336,2.296
	C3.722,2.925,3.521,3.897,3.97,4.682c0.319,0.557,0.859,0.95,1.433,1.21c0.747,0.335,1.526,0.591,2.326,0.762
	c2.228,0.495,4.534,0.689,6.81,0.772c2.522,0.103,5.048,0.02,7.558-0.248c0.621-0.069,1.24-0.151,1.859-0.247
	c0.728-0.112,1.195-1.07,0.98-1.737c-0.257-0.798-0.947-1.107-1.728-0.987c-0.115,0.018-0.229,0.035-0.345,0.052l-0.082,0.012
	c-0.266,0.034-0.529,0.065-0.794,0.094c-0.546,0.059-1.094,0.107-1.643,0.145c-1.229,0.086-2.462,0.126-3.694,0.128
	c-1.21,0-2.422-0.034-3.63-0.114c-0.551-0.036-1.101-0.083-1.649-0.139c-0.25-0.026-0.498-0.054-0.747-0.084l-0.237-0.03
	l-0.051-0.008l-0.246-0.035c-0.501-0.076-1.003-0.164-1.5-0.27c-0.05-0.011-0.095-0.039-0.127-0.079
	c-0.032-0.041-0.049-0.09-0.049-0.142c0-0.051,0.018-0.102,0.049-0.142c0.032-0.041,0.077-0.068,0.127-0.08h0.009
	c0.43-0.092,0.864-0.171,1.298-0.239c0.145-0.023,0.291-0.045,0.436-0.067h0.004c0.272-0.018,0.546-0.067,0.817-0.1
	c2.357-0.247,4.728-0.331,7.096-0.251c1.148,0.034,2.299,0.102,3.442,0.218c0.246,0.026,0.491,0.053,0.735,0.083
	c0.094,0.011,0.188,0.025,0.283,0.036l0.189,0.028c0.554,0.083,1.105,0.184,1.652,0.302c0.813,0.178,1.855,0.235,2.217,1.13
	c0.114,0.284,0.166,0.599,0.23,0.897l0.08,0.38c0.002,0.007,0.004,0.014,0.006,0.021c0.19,0.897,0.383,1.794,0.574,2.691
	c0.014,0.066,0.014,0.135,0,0.201c-0.013,0.066-0.039,0.129-0.078,0.185s-0.088,0.103-0.146,0.138
	c-0.057,0.035-0.121,0.059-0.188,0.068h-0.006l-0.117,0.016l-0.115,0.015c-0.367,0.048-0.733,0.093-1.102,0.135
	c-0.723,0.083-1.447,0.155-2.174,0.215c-1.442,0.121-2.888,0.2-4.336,0.237c-0.738,0.02-1.476,0.029-2.213,0.028
	c-2.935-0.002-5.868-0.174-8.784-0.514C8.087,9.33,7.771,9.29,7.456,9.249C7.701,9.28,7.278,9.225,7.192,9.212
	C6.992,9.184,6.791,9.155,6.59,9.124C5.917,9.022,5.247,8.897,4.575,8.788C3.763,8.653,2.985,8.721,2.25,9.124
	c-0.604,0.332-1.092,0.841-1.4,1.46c-0.317,0.659-0.412,1.377-0.553,2.085c-0.142,0.708-0.363,1.471-0.279,2.198
	c0.18,1.569,1.271,2.845,2.84,3.13c1.476,0.269,2.96,0.487,4.448,0.672c5.846,0.72,11.752,0.806,17.615,0.257
	c0.479-0.045,0.955-0.094,1.432-0.147c0.148-0.016,0.299,0.001,0.439,0.051c0.142,0.049,0.27,0.13,0.377,0.236
	c0.105,0.106,0.188,0.234,0.237,0.376c0.05,0.142,0.068,0.293,0.054,0.443l-0.148,1.452c-0.3,2.933-0.6,5.866-0.898,8.799
	c-0.312,3.08-0.626,6.159-0.941,9.239c-0.09,0.867-0.179,1.734-0.268,2.601c-0.086,0.854-0.098,1.734-0.26,2.577
	c-0.254,1.327-1.146,2.142-2.449,2.439c-1.193,0.273-2.414,0.417-3.638,0.428c-1.357,0.008-2.713-0.053-4.07-0.045
	c-1.449,0.008-3.223-0.127-4.341-1.211c-0.982-0.953-1.118-2.443-1.252-3.733c-0.178-1.707-0.355-3.414-0.53-5.121l-0.983-9.49
	l-0.636-6.141c-0.011-0.102-0.021-0.202-0.031-0.304c-0.076-0.732-0.592-1.45-1.404-1.413c-0.696,0.031-1.486,0.625-1.405,1.413
	l0.472,4.552l0.975,9.417c0.278,2.676,0.555,5.351,0.831,8.026c0.054,0.513,0.104,1.026,0.16,1.539
	c0.306,2.801,2.433,4.311,5.066,4.735c1.538,0.249,3.114,0.301,4.675,0.326c2.001,0.031,4.022,0.109,5.991-0.256
	c2.916-0.537,5.105-2.496,5.417-5.535c0.089-0.877,0.179-1.754,0.268-2.632c0.297-2.901,0.593-5.805,0.888-8.707l0.968-9.484
	l0.443-4.347c0.022-0.215,0.112-0.418,0.259-0.578c0.145-0.16,0.338-0.269,0.549-0.31c0.834-0.163,1.632-0.442,2.225-1.081
	C34.336,16.025,34.523,14.7,34.189,13.364z M2.815,14.302c0.013-0.006-0.011,0.104-0.021,0.154
	C2.792,14.379,2.797,14.311,2.815,14.302z M2.896,14.931c0.006-0.004,0.026,0.022,0.047,0.055
	C2.913,14.956,2.893,14.934,2.896,14.931L2.896,14.931z M2.976,15.037C3.005,15.086,3.02,15.117,2.976,15.037L2.976,15.037z
	 M3.136,15.167H3.14c0,0.004,0.007,0.009,0.01,0.014C3.146,15.176,3.141,15.171,3.136,15.167L3.136,15.167z M31.128,14.972
	c-0.3,0.287-0.751,0.42-1.197,0.486c-5.003,0.747-10.079,1.125-15.137,0.958c-3.62-0.125-7.201-0.529-10.785-1.038
	c-0.351-0.05-0.732-0.114-0.973-0.375c-0.455-0.491-0.231-1.48-0.113-2.073c0.108-0.543,0.316-1.268,0.958-1.345
	c1.003-0.119,2.168,0.307,3.161,0.458c1.195,0.184,2.395,0.331,3.598,0.441c5.138,0.471,10.362,0.397,15.478-0.292
	c0.933-0.126,1.861-0.272,2.787-0.439c0.825-0.149,1.739-0.428,2.237,0.431c0.342,0.585,0.387,1.368,0.334,2.029
	C31.461,14.503,31.336,14.774,31.128,14.972L31.128,14.972z"/>
</svg>
