<?xml version="1.0" encoding="utf-8"?>
<!-- Generator: Adobe Illustrator 16.0.0, SVG Export Plug-In . SVG Version: 6.00 Build 0)  -->
<!DOCTYPE svg PUBLIC "-//W3C//DTD SVG 1.1//EN" "http://www.w3.org/Graphics/SVG/1.1/DTD/svg11.dtd">
<svg version="1.1" id="Layer_1" focusable="false" xmlns="http://www.w3.org/2000/svg" xmlns:xlink="http://www.w3.org/1999/xlink"
	 x="0px" y="0px" width="60px" height="60px" viewBox="0 0 60 60" enable-background="new 0 0 60 60" xml:space="preserve">
<path fill="#FFFFFF" d="M58.863,22.359C59.32,21.996,60,22.336,60,22.91v23.965c0,3.105-2.52,5.625-5.625,5.625H5.625
	C2.52,52.5,0,49.98,0,46.875V22.922c0-0.586,0.668-0.914,1.137-0.551C3.762,24.41,7.242,27,19.195,35.684
	c2.473,1.805,6.645,5.602,10.805,5.578c4.184,0.035,8.438-3.844,10.816-5.578C52.77,27,56.238,24.398,58.863,22.359z M30,37.5
	c2.719,0.047,6.633-3.422,8.602-4.852c15.551-11.285,16.734-12.27,20.32-15.082C59.602,17.039,60,16.219,60,15.352v-2.227
	C60,10.02,57.48,7.5,54.375,7.5H5.625C2.52,7.5,0,10.02,0,13.125v2.227c0,0.867,0.398,1.676,1.078,2.215
	c3.586,2.801,4.77,3.797,20.32,15.082C23.367,34.078,27.281,37.547,30,37.5z"/>
</svg>
