<?xml version="1.0" encoding="utf-8"?>
<!-- Generator: Adobe Illustrator 16.0.0, SVG Export Plug-In . SVG Version: 6.00 Build 0)  -->
<!DOCTYPE svg PUBLIC "-//W3C//DTD SVG 1.1//EN" "http://www.w3.org/Graphics/SVG/1.1/DTD/svg11.dtd">
<svg version="1.1" id="Layer_1" focusable="false" xmlns="http://www.w3.org/2000/svg" xmlns:xlink="http://www.w3.org/1999/xlink"
	 x="0px" y="0px" width="60px" height="60px" viewBox="0 0 60 60" enable-background="new 0 0 60 60" xml:space="preserve">
<path fill="#FFFFFF" d="M59.638,28.479C53.988,17.458,42.805,10,30,10C17.195,10,6.008,17.462,0.362,28.48
	c-0.483,0.956-0.483,2.084,0,3.041C6.011,42.543,17.195,50,30,50c12.805,0,23.992-7.463,29.638-18.48
	C60.121,30.564,60.121,29.435,59.638,28.479z M30,45c-8.284,0-15-6.716-15-15s6.716-15,15-15s15,6.716,15,15
	c0.004,8.28-6.705,14.996-14.985,15C30.01,45,30.005,45,30,45z M30,20c-0.893,0.013-1.779,0.146-2.636,0.395
	c1.631,2.217,1.157,5.337-1.061,6.969c-1.757,1.293-4.151,1.293-5.908,0c-1.444,5.318,1.697,10.798,7.015,12.242
	c5.317,1.443,10.799-1.697,12.242-7.015c1.443-5.318-1.697-10.799-7.016-12.242C31.777,20.115,30.891,19.998,30,20z"/>
</svg>
