<?xml version="1.0" encoding="utf-8"?>
<!-- Generator: Adobe Illustrator 16.0.0, SVG Export Plug-In . SVG Version: 6.00 Build 0)  -->
<!DOCTYPE svg PUBLIC "-//W3C//DTD SVG 1.1//EN" "http://www.w3.org/Graphics/SVG/1.1/DTD/svg11.dtd">
<svg version="1.1" id="Layer_1" xmlns="http://www.w3.org/2000/svg" xmlns:xlink="http://www.w3.org/1999/xlink" x="0px" y="0px"
	 width="24px" height="24px" viewBox="0 0 24 24" enable-background="new 0 0 24 24" xml:space="preserve">
<path fill="#FFFFFF" d="M6.167,2v5.833H4.5c-1.37,0-2.5,1.13-2.5,2.5v8.334h4.167V22h11.666v-3.333H22v-8.334
	c0-1.37-1.13-2.5-2.5-2.5h-1.667V2H6.167z M7.833,3.667h8.334v4.166H7.833V3.667z M4.5,9.5h15c0.473,0,0.833,0.361,0.833,0.833V17
	h-2.5v-3.333H6.167V17h-2.5v-6.667C3.667,9.861,4.028,9.5,4.5,9.5z M5.333,10.333c-0.459,0-0.833,0.375-0.833,0.834
	S4.874,12,5.333,12c0.46,0,0.834-0.374,0.834-0.833C6.167,10.707,5.792,10.333,5.333,10.333z M7.833,15.333h8.334v5H7.833V15.333z"
	/>
</svg>
