<svg xmlns="http://www.w3.org/2000/svg" width="24" height="24" fill="none" viewBox="0 0 24 24">
    <path stroke="#000" stroke-linecap="round" stroke-linejoin="round" stroke-width="2" d="M6 2L3 6v14c0 .53.21 1.04.586 1.414C3.96 21.79 4.47 22 5 22h14c.53 0 1.04-.21 1.414-.586C20.79 21.04 21 20.53 21 20V6l-3-4H6zM3 6h18"/>
    <path stroke="#000" stroke-linecap="round" stroke-linejoin="round" stroke-width="2" d="M16 10c0 1.06-.421 2.078-1.172 2.828C14.078 13.578 13.061 14 12 14c-1.06 0-2.078-.421-2.828-1.172C8.422 12.078 8 11.061 8 10"/>
</svg>
