<?xml version="1.0" encoding="utf-8"?>
<!-- Generator: Adobe Illustrator 16.0.0, SVG Export Plug-In . SVG Version: 6.00 Build 0)  -->
<!DOCTYPE svg PUBLIC "-//W3C//DTD SVG 1.1//EN" "http://www.w3.org/Graphics/SVG/1.1/DTD/svg11.dtd">
<svg version="1.1" id="Layer_1" focusable="false" xmlns="http://www.w3.org/2000/svg" xmlns:xlink="http://www.w3.org/1999/xlink"
	 x="0px" y="0px" width="60px" height="60px" viewBox="0 0 60 60" enable-background="new 0 0 60 60" xml:space="preserve">
<path fill="#FFFFFF" d="M30.012,16.523c-7.453,0-13.465,6.012-13.465,13.465s6.012,13.465,13.465,13.465s13.465-6.012,13.465-13.465
	S37.465,16.523,30.012,16.523z M30.012,38.742c-4.816,0-8.754-3.926-8.754-8.754s3.926-8.754,8.754-8.754s8.754,3.926,8.754,8.754
	S34.828,38.742,30.012,38.742z M47.168,15.973c0,1.746-1.406,3.141-3.141,3.141c-1.746,0-3.141-1.406-3.141-3.141
	s1.406-3.141,3.141-3.141S47.168,14.238,47.168,15.973z M56.086,19.16c-0.199-4.207-1.16-7.934-4.242-11.004
	c-3.07-3.07-6.797-4.031-11.004-4.242c-4.336-0.246-17.332-0.246-21.668,0c-4.195,0.199-7.922,1.16-11.004,4.23
	s-4.031,6.797-4.242,11.004c-0.246,4.336-0.246,17.332,0,21.668c0.199,4.207,1.16,7.934,4.242,11.004s6.797,4.031,11.004,4.242
	c4.336,0.246,17.332,0.246,21.668,0c4.207-0.199,7.934-1.16,11.004-4.242c3.07-3.07,4.031-6.797,4.242-11.004
	C56.332,36.48,56.332,23.496,56.086,19.16z M50.484,45.469c-0.914,2.297-2.684,4.066-4.992,4.992
	c-3.457,1.371-11.66,1.055-15.48,1.055s-12.035,0.305-15.48-1.055c-2.297-0.914-4.066-2.684-4.992-4.992
	c-1.371-3.457-1.055-11.66-1.055-15.48S8.18,17.953,9.539,14.508c0.914-2.297,2.684-4.066,4.992-4.992
	c3.457-1.371,11.66-1.055,15.48-1.055s12.035-0.305,15.48,1.055c2.297,0.914,4.066,2.684,4.992,4.992
	c1.371,3.457,1.055,11.66,1.055,15.48S51.855,42.023,50.484,45.469z"/>
</svg>
