<?xml version="1.0" encoding="utf-8"?>
<!-- Generator: Adobe Illustrator 16.0.0, SVG Export Plug-In . SVG Version: 6.00 Build 0)  -->
<!DOCTYPE svg PUBLIC "-//W3C//DTD SVG 1.1//EN" "http://www.w3.org/Graphics/SVG/1.1/DTD/svg11.dtd">
<svg version="1.1" id="Layer_1" focusable="false" xmlns="http://www.w3.org/2000/svg" xmlns:xlink="http://www.w3.org/1999/xlink"
	 x="0px" y="0px" width="60px" height="60px" viewBox="0 0 60 60" enable-background="new 0 0 60 60" xml:space="preserve">
<path fill="#FFFFFF" d="M52.5,3.75H7.488c-2.063,0-3.738,1.699-3.738,3.785v44.93c0,2.086,1.676,3.785,3.738,3.785H52.5
	c2.063,0,3.75-1.699,3.75-3.785V7.535C56.25,5.449,54.563,3.75,52.5,3.75z M19.617,48.75h-7.781V23.695h7.793V48.75H19.617z
	 M15.727,20.273c-2.496,0-4.512-2.027-4.512-4.512s2.016-4.512,4.512-4.512c2.484,0,4.512,2.027,4.512,4.512
	C20.238,18.258,18.223,20.273,15.727,20.273z M48.785,48.75h-7.781V36.563c0-2.906-0.059-6.645-4.043-6.645
	c-4.055,0-4.676,3.164-4.676,6.434V48.75h-7.781V23.695h7.465v3.422h0.105c1.043-1.969,3.586-4.043,7.371-4.043
	c7.875,0,9.34,5.191,9.34,11.941V48.75z"/>
</svg>
