<?xml version="1.0" encoding="utf-8"?>
<!-- Generator: Adobe Illustrator 16.0.0, SVG Export Plug-In . SVG Version: 6.00 Build 0)  -->
<!DOCTYPE svg PUBLIC "-//W3C//DTD SVG 1.1//EN" "http://www.w3.org/Graphics/SVG/1.1/DTD/svg11.dtd">
<svg version="1.1" id="Layer_1" focusable="false" xmlns="http://www.w3.org/2000/svg" xmlns:xlink="http://www.w3.org/1999/xlink"
	 x="0px" y="0px" width="60px" height="60px" viewBox="0 0 60 60" enable-background="new 0 0 60 60" xml:space="preserve">
<path fill="#FFFFFF" d="M57.82,2.883L45.633,0.07c-1.324-0.305-2.684,0.387-3.223,1.629l-5.625,13.125
	c-0.492,1.148-0.164,2.496,0.809,3.281l7.102,5.813c-4.219,8.988-11.59,16.465-20.766,20.766l-5.813-7.102
	c-0.797-0.973-2.133-1.301-3.281-0.809L1.711,42.398c-1.254,0.551-1.945,1.91-1.641,3.234L2.883,57.82
	C3.176,59.086,4.301,60,5.625,60C35.637,60,60,35.684,60,5.625C60,4.313,59.098,3.176,57.82,2.883z"/>
</svg>
