<?xml version="1.0" encoding="utf-8"?>
<!-- Generator: Adobe Illustrator 16.0.0, SVG Export Plug-In . SVG Version: 6.00 Build 0)  -->
<!DOCTYPE svg PUBLIC "-//W3C//DTD SVG 1.1//EN" "http://www.w3.org/Graphics/SVG/1.1/DTD/svg11.dtd">
<svg version="1.1" id="Layer_1" focusable="false" xmlns="http://www.w3.org/2000/svg" xmlns:xlink="http://www.w3.org/1999/xlink"
	 x="0px" y="0px" width="60px" height="60px" viewBox="0 0 60 60" enable-background="new 0 0 60 60" xml:space="preserve">
<path fill="#FFFFFF" d="M59.063,30c0,16.055-13.008,29.063-29.063,29.063c-3,0-5.883-0.457-8.602-1.301
	c1.184-1.934,2.953-5.098,3.609-7.617c0.352-1.359,1.805-6.914,1.805-6.914c0.949,1.805,3.715,3.34,6.656,3.34
	c8.766,0,15.082-8.063,15.082-18.082c0-9.598-7.84-16.781-17.918-16.781c-12.539,0-19.207,8.414-19.207,17.59
	c0,4.266,2.273,9.574,5.895,11.262c0.551,0.258,0.844,0.141,0.973-0.387c0.094-0.398,0.586-2.379,0.809-3.293
	c0.07-0.293,0.035-0.551-0.199-0.832c-1.184-1.465-2.145-4.137-2.145-6.633c0-6.41,4.852-12.609,13.125-12.609
	c7.137,0,12.141,4.863,12.141,11.824c0,7.863-3.973,13.313-9.141,13.313c-2.848,0-4.992-2.355-4.301-5.25
	c0.82-3.457,2.402-7.184,2.402-9.68c0-2.227-1.195-4.09-3.68-4.09c-2.918,0-5.262,3.012-5.262,7.055
	c0,2.578,0.867,4.313,0.867,4.313s-2.871,12.164-3.398,14.438c-0.586,2.508-0.352,6.047-0.105,8.344
	C8.602,52.84,0.938,42.316,0.938,30C0.938,13.945,13.945,0.938,30,0.938S59.063,13.945,59.063,30z"/>
</svg>
