<?xml version="1.0" encoding="utf-8"?>
<!-- Generator: Adobe Illustrator 16.0.0, SVG Export Plug-In . SVG Version: 6.00 Build 0)  -->
<!DOCTYPE svg PUBLIC "-//W3C//DTD SVG 1.1//EN" "http://www.w3.org/Graphics/SVG/1.1/DTD/svg11.dtd">
<svg version="1.1" id="Layer_1" xmlns="http://www.w3.org/2000/svg" xmlns:xlink="http://www.w3.org/1999/xlink" x="0px" y="0px"
	 width="24px" height="24px" viewBox="0 0 24 24" enable-background="new 0 0 24 24" xml:space="preserve">
<path fill="#231F20" d="M15.73,14.836l-0.354-0.34c1.231-1.434,1.976-3.295,1.976-5.32C17.352,4.66,13.691,1,9.176,1
	C4.661,1,1,4.66,1,9.176s3.66,8.176,8.176,8.176c2.025,0,3.887-0.742,5.32-1.975l0.34,0.354v0.992l5.4,5.392
	c0.492,0.489,1.287,0.489,1.777-0.003l0.098-0.098c0.49-0.49,0.492-1.285,0-1.777l-5.389-5.399L15.73,14.836L15.73,14.836z
	 M3.516,9.176c0-3.132,2.528-5.66,5.66-5.66c3.132,0,5.66,2.528,5.66,5.66c0,3.132-2.528,5.66-5.66,5.66
	C6.044,14.836,3.516,12.308,3.516,9.176z"/>
<path fill="#231F20" d="M15.73,14.836l-0.354-0.34c1.231-1.434,1.976-3.295,1.976-5.32C17.352,4.66,13.691,1,9.176,1
	C4.661,1,1,4.66,1,9.176s3.66,8.176,8.176,8.176c2.025,0,3.887-0.742,5.32-1.975l0.34,0.354v0.992l5.4,5.392
	c0.492,0.489,1.287,0.489,1.777-0.003l0.098-0.098c0.49-0.49,0.492-1.285,0-1.777l-5.389-5.399L15.73,14.836L15.73,14.836z
	 M3.516,9.176c0-3.132,2.528-5.66,5.66-5.66c3.132,0,5.66,2.528,5.66,5.66c0,3.132-2.528,5.66-5.66,5.66
	C6.044,14.836,3.516,12.308,3.516,9.176z"/>
</svg>
