<?xml version="1.0" encoding="utf-8"?>
<!-- Generator: Adobe Illustrator 16.0.0, SVG Export Plug-In . SVG Version: 6.00 Build 0)  -->
<!DOCTYPE svg PUBLIC "-//W3C//DTD SVG 1.1//EN" "http://www.w3.org/Graphics/SVG/1.1/DTD/svg11.dtd">
<svg version="1.1" id="Layer_1" focusable="false" xmlns="http://www.w3.org/2000/svg" xmlns:xlink="http://www.w3.org/1999/xlink"
	 x="0px" y="0px" width="60px" height="60px" viewBox="0 0 60 60" enable-background="new 0 0 60 60" xml:space="preserve">
<path fill="#FFFFFF" d="M59.18,51.879L47.496,40.195c-0.527-0.527-1.242-0.82-1.992-0.82h-1.91c3.234-4.137,5.156-9.34,5.156-15
	C48.75,10.91,37.84,0,24.375,0S0,10.91,0,24.375S10.91,48.75,24.375,48.75c5.66,0,10.863-1.922,15-5.156v1.91
	c0,0.75,0.293,1.465,0.82,1.992L51.879,59.18c1.102,1.102,2.883,1.102,3.973,0l3.316-3.316C60.27,54.762,60.27,52.98,59.18,51.879z
	 M24.375,39.375c-8.285,0-15-6.703-15-15c0-8.285,6.703-15,15-15c8.285,0,15,6.703,15,15C39.375,32.66,32.672,39.375,24.375,39.375z
	"/>
</svg>
