<?xml version="1.0" encoding="utf-8"?>
<!-- Generator: Adobe Illustrator 16.0.0, SVG Export Plug-In . SVG Version: 6.00 Build 0)  -->
<!DOCTYPE svg PUBLIC "-//W3C//DTD SVG 1.1//EN" "http://www.w3.org/Graphics/SVG/1.1/DTD/svg11.dtd">
<svg version="1.1" id="Layer_1" focusable="false" xmlns="http://www.w3.org/2000/svg" xmlns:xlink="http://www.w3.org/1999/xlink"
	 x="0px" y="0px" width="60px" height="60px" viewBox="0 0 60 60" enable-background="new 0 0 60 60" xml:space="preserve">
<path fill="#FFFFFF" d="M55.013,34.721l4.924-21.667C60.293,11.49,59.104,10,57.499,10H16.584l-0.955-4.667
	c-0.238-1.164-1.262-1.999-2.449-1.999H2.5c-1.381,0-2.5,1.119-2.5,2.5V7.5C0,8.881,1.119,10,2.5,10h7.279l7.318,35.774
	c-1.751,1.007-2.931,2.895-2.931,5.06c0,3.221,2.612,5.832,5.833,5.832s5.833-2.611,5.833-5.832c0-1.633-0.672-3.108-1.752-4.168
	h21.838c-1.081,1.06-1.753,2.535-1.753,4.168c0,3.221,2.612,5.832,5.834,5.832s5.834-2.611,5.834-5.832
	c0-2.311-1.344-4.307-3.29-5.251l0.575-2.528C53.475,41.49,52.285,40,50.681,40h-27.96l-0.682-3.334h30.536
	C53.742,36.666,54.754,35.859,55.013,34.721z"/>
</svg>
