<?xml version="1.0" encoding="utf-8"?>
<!-- Generator: Adobe Illustrator 16.0.0, SVG Export Plug-In . SVG Version: 6.00 Build 0)  -->
<!DOCTYPE svg PUBLIC "-//W3C//DTD SVG 1.1//EN" "http://www.w3.org/Graphics/SVG/1.1/DTD/svg11.dtd">
<svg version="1.1" id="Layer_1" focusable="false" xmlns="http://www.w3.org/2000/svg" xmlns:xlink="http://www.w3.org/1999/xlink"
	 x="0px" y="0px" width="60px" height="60px" viewBox="0 0 60 60" enable-background="new 0 0 60 60" xml:space="preserve">
<path fill="#FFFFFF" stroke="#FFFFFF" stroke-miterlimit="10" d="M37.818,30l11.728-11.727c1.438-1.439,1.438-3.772,0-5.212
	l-2.606-2.606c-1.439-1.439-3.772-1.439-5.213,0L30,22.181L18.273,10.454c-1.439-1.439-3.772-1.439-5.212,0l-2.606,2.606
	c-1.439,1.439-1.439,3.772,0,5.212L22.181,30L10.454,41.727c-1.439,1.439-1.439,3.772,0,5.213l2.606,2.606
	c1.439,1.438,3.773,1.438,5.212,0L30,37.818l11.727,11.728c1.439,1.438,3.773,1.438,5.213,0l2.606-2.606
	c1.438-1.439,1.438-3.772,0-5.213L37.818,30z"/>
</svg>
