<?xml version="1.0" encoding="utf-8"?>
<!-- Generator: Adobe Illustrator 16.0.0, SVG Export Plug-In . SVG Version: 6.00 Build 0)  -->
<!DOCTYPE svg PUBLIC "-//W3C//DTD SVG 1.1//EN" "http://www.w3.org/Graphics/SVG/1.1/DTD/svg11.dtd">
<svg version="1.1" id="Layer_1" focusable="false" xmlns="http://www.w3.org/2000/svg" xmlns:xlink="http://www.w3.org/1999/xlink"
	 x="0px" y="0px" width="60px" height="60px" viewBox="0 0 60 60" enable-background="new 0 0 60 60" xml:space="preserve">
<path fill="#4B140F" d="M30,0.938C13.945,0.938,0.938,13.945,0.938,30S13.945,59.063,30,59.063S59.063,46.055,59.063,30
	S46.055,0.938,30,0.938z M44.25,37.629c0.551,0.551,0.551,1.441,0,1.992l-4.641,4.629c-0.551,0.551-1.441,0.551-1.992,0L30,36.563
	l-7.629,7.688c-0.551,0.551-1.441,0.551-1.992,0l-4.629-4.641c-0.551-0.551-0.551-1.441,0-1.992L23.438,30l-7.688-7.629
	c-0.551-0.551-0.551-1.441,0-1.992l4.641-4.641c0.551-0.551,1.441-0.551,1.992,0L30,23.438l7.629-7.688
	c0.551-0.551,1.441-0.551,1.992,0l4.641,4.641c0.551,0.551,0.551,1.441,0,1.992L36.563,30L44.25,37.629z"/>
</svg>
