<?xml version="1.0" encoding="utf-8"?>
<!-- Generator: Adobe Illustrator 16.0.0, SVG Export Plug-In . SVG Version: 6.00 Build 0)  -->
<!DOCTYPE svg PUBLIC "-//W3C//DTD SVG 1.1//EN" "http://www.w3.org/Graphics/SVG/1.1/DTD/svg11.dtd">
<svg version="1.1" id="Layer_1" focusable="false" xmlns="http://www.w3.org/2000/svg" xmlns:xlink="http://www.w3.org/1999/xlink"
	 x="0px" y="0px" width="60px" height="60px" viewBox="0 0 60 60" enable-background="new 0 0 60 60" xml:space="preserve">
<path fill="#FFFFFF" d="M53.832,17.779c0.039,0.533,0.039,1.066,0.039,1.599c0,16.256-12.373,34.987-34.988,34.987
	c-6.967,0-13.439-2.018-18.883-5.52c0.99,0.113,1.941,0.152,2.97,0.152c5.749,0,11.041-1.941,15.266-5.254
	c-5.406-0.115-9.937-3.655-11.498-8.528c0.762,0.114,1.523,0.19,2.323,0.19c1.104,0,2.208-0.152,3.236-0.419
	c-5.634-1.142-9.86-6.091-9.86-12.068v-0.152c1.637,0.914,3.541,1.485,5.558,1.561c-3.312-2.208-5.482-5.978-5.482-10.241
	c0-2.284,0.609-4.378,1.675-6.206c6.054,7.462,15.152,12.335,25.355,12.868c-0.19-0.914-0.305-1.865-0.305-2.817
	c0-6.777,5.482-12.297,12.297-12.297c3.541,0,6.738,1.484,8.984,3.883c2.779-0.533,5.445-1.561,7.805-2.97
	c-0.914,2.855-2.855,5.254-5.406,6.776c2.475-0.266,4.873-0.952,7.082-1.903C58.324,13.858,56.23,16.028,53.832,17.779
	L53.832,17.779z"/>
</svg>
