<?xml version="1.0" encoding="utf-8"?>
<!-- Generator: Adobe Illustrator 16.0.0, SVG Export Plug-In . SVG Version: 6.00 Build 0)  -->
<!DOCTYPE svg PUBLIC "-//W3C//DTD SVG 1.1//EN" "http://www.w3.org/Graphics/SVG/1.1/DTD/svg11.dtd">
<svg version="1.1" id="Layer_1" focusable="false" xmlns="http://www.w3.org/2000/svg" xmlns:xlink="http://www.w3.org/1999/xlink"
	 x="0px" y="0px" width="60px" height="60px" viewBox="0 0 60 60" enable-background="new 0 0 60 60" xml:space="preserve">
<path fill="#FFFFFF" d="M30,30c8.285,0,15-6.715,15-15S38.285,0,30,0S15,6.715,15,15S21.715,30,30,30z M40.5,33.75h-1.957
	c-2.602,1.195-5.496,1.875-8.543,1.875s-5.93-0.68-8.543-1.875H19.5c-8.695,0-15.75,7.055-15.75,15.75v4.875
	C3.75,57.48,6.27,60,9.375,60h41.25c3.105,0,5.625-2.52,5.625-5.625V49.5C56.25,40.805,49.195,33.75,40.5,33.75z"/>
</svg>
